<?xml version="1.0" encoding="utf-8"?>
<svg version="1.1" xmlns:xlink="http://www.w3.org/1999/xlink" width="20px" height="20px" preserveAspectRatio="xMinYMid meet" viewBox="1427 822  20 18" xmlns="http://www.w3.org/2000/svg">
  <path d="M 1284 525  L 1284 826  A 5 5 0 0 0 1289 831 L 1437 831  " stroke-width="2" stroke="#ffadd6" fill="none" />
  <path d="M 1284 523  A 3.5 3.5 0 0 0 1280.5 526.5 A 3.5 3.5 0 0 0 1284 530 A 3.5 3.5 0 0 0 1287.5 526.5 A 3.5 3.5 0 0 0 1284 523 Z M 1431.89289321881 826.707106781187  L 1436.18578643763 831  L 1431.89289321881 835.292893218813  L 1433.30710678119 836.707106781187  L 1438.30710678119 831.707106781187  L 1439.01421356237 831  L 1438.30710678119 830.292893218813  L 1433.30710678119 825.292893218813  L 1431.89289321881 826.707106781187  Z " fill-rule="nonzero" fill="#ffadd6" stroke="none" />
</svg>