<?xml version="1.0" encoding="utf-8"?>
<svg version="1.1" xmlns:xlink="http://www.w3.org/1999/xlink" width="10px" height="24px" preserveAspectRatio="xMidYMin meet" viewBox="1300 68  8 24" xmlns="http://www.w3.org/2000/svg">
  <path d="M 1172 73  L 1299 73  A 5 5 0 0 1 1304 78 L 1304 82  A 5 5 0 0 0 1309 87 L 1437 87  " stroke-width="2" stroke="#ffadd6" fill="none" />
  <path d="M 1173.5 69.5  A 3.5 3.5 0 0 0 1170 73 A 3.5 3.5 0 0 0 1173.5 76.5 A 3.5 3.5 0 0 0 1177 73 A 3.5 3.5 0 0 0 1173.5 69.5 Z M 1431.89289321881 82.7071067811866  L 1436.18578643763 87  L 1431.89289321881 91.2928932188134  L 1433.30710678119 92.7071067811866  L 1438.30710678119 87.7071067811866  L 1439.01421356237 87  L 1438.30710678119 86.2928932188134  L 1433.30710678119 81.2928932188134  L 1431.89289321881 82.7071067811866  Z " fill-rule="nonzero" fill="#ffadd6" stroke="none" />
</svg>