<?xml version="1.0" encoding="utf-8"?>
<svg version="1.1" xmlns:xlink="http://www.w3.org/1999/xlink" width="10px" height="22px" preserveAspectRatio="xMidYMin meet" viewBox="1545 375  8 22" xmlns="http://www.w3.org/2000/svg">
  <path d="M 393 114.5  L 1429 114.5  A 5 5 0 0 1 1434.5 119.5 L 1434.5 375  A 5 5 0 0 0 1439.5 380.5 L 1544 380.5  A 5 5 0 0 1 1549.5 385.5 L 1549.5 397  " stroke-width="1" stroke="#ff3399" fill="none" />
  <path d="M 395 111.5  A 3 3 0 0 0 392 114.5 A 3 3 0 0 0 395 117.5 A 3 3 0 0 0 398 114.5 A 3 3 0 0 0 395 111.5 Z " fill-rule="nonzero" fill="#ff3399" stroke="none" />
</svg>