<?xml version="1.0" encoding="utf-8"?>
<svg version="1.1" xmlns:xlink="http://www.w3.org/1999/xlink" width="10px" height="39px" preserveAspectRatio="xMidYMin meet" viewBox="1677 646  8 39" xmlns="http://www.w3.org/2000/svg">
  <path d="M 466 438.5  L 655 438.5  A 5 5 0 0 1 660.5 443.5 L 660.5 646  A 5 5 0 0 0 665.5 651.5 L 1676 651.5  A 5 5 0 0 1 1681.5 656.5 L 1681.5 685  " stroke-width="1" stroke="#ff3399" fill="none" />
  <path d="M 468 435.5  A 3 3 0 0 0 465 438.5 A 3 3 0 0 0 468 441.5 A 3 3 0 0 0 471 438.5 A 3 3 0 0 0 468 435.5 Z " fill-rule="nonzero" fill="#ff3399" stroke="none" />
</svg>