<?xml version="1.0" encoding="utf-8"?>
<svg version="1.1" xmlns:xlink="http://www.w3.org/1999/xlink" width="169px" height="10px" preserveAspectRatio="xMinYMid meet" viewBox="1405 516  169 8" xmlns="http://www.w3.org/2000/svg">
  <path d="M 696 195.5  L 1405 195.5  A 5 5 0 0 1 1410.5 200.5 L 1410.5 515  A 5 5 0 0 0 1415.5 520.5 L 1564 520.5  A 5 5 0 0 1 1569.5 525.5 L 1569.5 533  " stroke-width="1" stroke="#ff3399" fill="none" />
  <path d="M 698 192.5  A 3 3 0 0 0 695 195.5 A 3 3 0 0 0 698 198.5 A 3 3 0 0 0 701 195.5 A 3 3 0 0 0 698 192.5 Z " fill-rule="nonzero" fill="#ff3399" stroke="none" />
</svg>