<?xml version="1.0" encoding="utf-8"?>
<svg version="1.1" xmlns:xlink="http://www.w3.org/1999/xlink" width="18px" height="18px" preserveAspectRatio="xMinYMid meet" viewBox="992 382  18 16" xmlns="http://www.w3.org/2000/svg">
  <path d="M 1001.5 388  L 1001.5 435  A 5 5 0 0 0 1006.5 440.5 L 1430 440.5  " stroke-width="1" stroke="#ffadd6" fill="none" />
  <path d="M 1001.5 387  A 3 3 0 0 0 998.5 390 A 3 3 0 0 0 1001.5 393 A 3 3 0 0 0 1004.5 390 A 3 3 0 0 0 1001.5 387 Z M 1424.94644660941 435.853553390593  L 1429.59289321881 440.5  L 1424.94644660941 445.146446609407  L 1425.65355339059 445.853553390593  L 1430.65355339059 440.853553390593  L 1431.00710678119 440.5  L 1430.65355339059 440.146446609407  L 1425.65355339059 435.146446609407  L 1424.94644660941 435.853553390593  Z " fill-rule="nonzero" fill="#ffadd6" stroke="none" />
</svg>