<?xml version="1.0" encoding="utf-8"?>
<svg version="1.1" xmlns:xlink="http://www.w3.org/1999/xlink" width="216px" height="10px" preserveAspectRatio="xMinYMid meet" viewBox="1277 488  216 8" xmlns="http://www.w3.org/2000/svg">
  <path d="M 1282.5 339  L 1282.5 487  A 5 5 0 0 0 1287.5 492.5 L 1492 492.5  " stroke-width="1" stroke="#ffadd6" fill="none" />
  <path d="M 1282.5 338  A 3 3 0 0 0 1279.5 341 A 3 3 0 0 0 1282.5 344 A 3 3 0 0 0 1285.5 341 A 3 3 0 0 0 1282.5 338 Z M 1486.94644660941 487.853553390593  L 1491.59289321881 492.5  L 1486.94644660941 497.146446609407  L 1487.65355339059 497.853553390593  L 1492.65355339059 492.853553390593  L 1493.00710678119 492.5  L 1492.65355339059 492.146446609407  L 1487.65355339059 487.146446609407  L 1486.94644660941 487.853553390593  Z " fill-rule="nonzero" fill="#ffadd6" stroke="none" />
</svg>