<?xml version="1.0" encoding="utf-8"?>
<svg version="1.1" xmlns:xlink="http://www.w3.org/1999/xlink" width="18px" height="18px" preserveAspectRatio="xMinYMid meet" viewBox="677 164  18 16" xmlns="http://www.w3.org/2000/svg">
  <path d="M 684 172.5  L 1405 172.5  A 5 5 0 0 1 1410.5 177.5 L 1410.5 196  A 5 5 0 0 0 1415.5 201.5 L 1492 201.5  " stroke-width="1" stroke="#ffadd6" fill="none" />
  <path d="M 686 169.5  A 3 3 0 0 0 683 172.5 A 3 3 0 0 0 686 175.5 A 3 3 0 0 0 689 172.5 A 3 3 0 0 0 686 169.5 Z M 1486.94644660941 196.853553390593  L 1491.59289321881 201.5  L 1486.94644660941 206.146446609407  L 1487.65355339059 206.853553390593  L 1492.65355339059 201.853553390593  L 1493.00710678119 201.5  L 1492.65355339059 201.146446609407  L 1487.65355339059 196.146446609407  L 1486.94644660941 196.853553390593  Z " fill-rule="nonzero" fill="#ffadd6" stroke="none" />
</svg>