<?xml version="1.0" encoding="utf-8"?>
<svg version="1.1" xmlns:xlink="http://www.w3.org/1999/xlink" width="1009px" height="10px" preserveAspectRatio="xMinYMid meet" viewBox="397 213  1009 8" xmlns="http://www.w3.org/2000/svg">
  <path d="M 399 217  L 1396 217  A 5 5 0 0 1 1401 222 L 1401 345  A 5 5 0 0 0 1406 350 L 1493 350  " stroke-width="2" stroke="#ffadd6" fill="none" />
  <path d="M 400.5 213.5  A 3.5 3.5 0 0 0 397 217 A 3.5 3.5 0 0 0 400.5 220.5 A 3.5 3.5 0 0 0 404 217 A 3.5 3.5 0 0 0 400.5 213.5 Z M 1487.89289321881 345.707106781187  L 1492.18578643763 350  L 1487.89289321881 354.292893218813  L 1489.30710678119 355.707106781187  L 1494.30710678119 350.707106781187  L 1495.01421356237 350  L 1494.30710678119 349.292893218813  L 1489.30710678119 344.292893218813  L 1487.89289321881 345.707106781187  Z " fill-rule="nonzero" fill="#ffadd6" stroke="none" />
</svg>