<?xml version="1.0" encoding="utf-8"?>
<svg version="1.1" xmlns:xlink="http://www.w3.org/1999/xlink" width="10px" height="41px" preserveAspectRatio="xMidYMin meet" viewBox="1196 1420  8 41" xmlns="http://www.w3.org/2000/svg">
  <path d="M 1200.5 1421  L 1200.5 1451  A 5 5 0 0 0 1205.5 1456.5 L 1492 1456.5  " stroke-width="1" stroke="#ffadd6" fill="none" />
  <path d="M 1200.5 1420  A 3 3 0 0 0 1197.5 1423 A 3 3 0 0 0 1200.5 1426 A 3 3 0 0 0 1203.5 1423 A 3 3 0 0 0 1200.5 1420 Z M 1486.94644660941 1451.85355339059  L 1491.59289321881 1456.5  L 1486.94644660941 1461.14644660941  L 1487.65355339059 1461.85355339059  L 1492.65355339059 1456.85355339059  L 1493.00710678119 1456.5  L 1492.65355339059 1456.14644660941  L 1487.65355339059 1451.14644660941  L 1486.94644660941 1451.85355339059  Z " fill-rule="nonzero" fill="#ffadd6" stroke="none" />
</svg>