<?xml version="1.0" encoding="utf-8"?>
<svg version="1.1" xmlns:xlink="http://www.w3.org/1999/xlink" width="554px" height="10px" preserveAspectRatio="xMinYMid meet" viewBox="941 1310  554 8" xmlns="http://www.w3.org/2000/svg">
  <path d="M 399 1181  L 941 1181  A 5 5 0 0 1 946 1186 L 946 1309  A 5 5 0 0 0 951 1314 L 1493 1314  " stroke-width="2" stroke="#ffadd6" fill="none" />
  <path d="M 400.5 1177.5  A 3.5 3.5 0 0 0 397 1181 A 3.5 3.5 0 0 0 400.5 1184.5 A 3.5 3.5 0 0 0 404 1181 A 3.5 3.5 0 0 0 400.5 1177.5 Z M 1487.89289321881 1309.70710678119  L 1492.18578643763 1314  L 1487.89289321881 1318.29289321881  L 1489.30710678119 1319.70710678119  L 1494.30710678119 1314.70710678119  L 1495.01421356237 1314  L 1494.30710678119 1313.29289321881  L 1489.30710678119 1308.29289321881  L 1487.89289321881 1309.70710678119  Z " fill-rule="nonzero" fill="#ffadd6" stroke="none" />
</svg>