<?xml version="1.0" encoding="utf-8"?>
<svg version="1.1" xmlns:xlink="http://www.w3.org/1999/xlink" width="10px" height="15px" preserveAspectRatio="xMidYMin meet" viewBox="1547 327  8 15" xmlns="http://www.w3.org/2000/svg">
  <path d="M 252 172.5  L 798 172.5  A 5 5 0 0 0 803.5 167.5 L 803.5 165  A 5 5 0 0 1 808.5 160.5 L 1403 160.5  A 5 5 0 0 1 1408.5 165.5 L 1408.5 327  A 5 5 0 0 0 1413.5 332.5 L 1546 332.5  A 5 5 0 0 1 1551.5 337.5 L 1551.5 342  " stroke-width="1" stroke="#ff3399" fill="none" />
  <path d="M 254 169.5  A 3 3 0 0 0 251 172.5 A 3 3 0 0 0 254 175.5 A 3 3 0 0 0 257 172.5 A 3 3 0 0 0 254 169.5 Z " fill-rule="nonzero" fill="#ff3399" stroke="none" />
</svg>