<?xml version="1.0" encoding="utf-8"?>
<svg version="1.1" xmlns:xlink="http://www.w3.org/1999/xlink" width="10px" height="19px" preserveAspectRatio="xMidYMin meet" viewBox="1548 618  8 19" xmlns="http://www.w3.org/2000/svg">
  <path d="M 901 635.5  L 905 635.5  A 5 5 0 0 0 910.5 630.5 L 910.5 628  A 5 5 0 0 1 915.5 623.5 L 1547 623.5  A 5 5 0 0 1 1552.5 628.5 L 1552.5 637  " stroke-width="1" stroke="#ff3399" fill="none" />
  <path d="M 903 632.5  A 3 3 0 0 0 900 635.5 A 3 3 0 0 0 903 638.5 A 3 3 0 0 0 906 635.5 A 3 3 0 0 0 903 632.5 Z " fill-rule="nonzero" fill="#ff3399" stroke="none" />
</svg>