<?xml version="1.0" encoding="utf-8"?>
<svg version="1.1" xmlns:xlink="http://www.w3.org/1999/xlink" width="20px" height="20px" preserveAspectRatio="xMinYMid meet" viewBox="1429 441  20 18" xmlns="http://www.w3.org/2000/svg">
  <path d="M 1011 399  L 1011 445  A 5 5 0 0 0 1016 450 L 1439 450  " stroke-width="2" stroke="#ffadd6" fill="none" />
  <path d="M 1011 397  A 3.5 3.5 0 0 0 1007.5 400.5 A 3.5 3.5 0 0 0 1011 404 A 3.5 3.5 0 0 0 1014.5 400.5 A 3.5 3.5 0 0 0 1011 397 Z M 1433.89289321881 445.707106781187  L 1438.18578643763 450  L 1433.89289321881 454.292893218813  L 1435.30710678119 455.707106781187  L 1440.30710678119 450.707106781187  L 1441.01421356237 450  L 1440.30710678119 449.292893218813  L 1435.30710678119 444.292893218813  L 1433.89289321881 445.707106781187  Z " fill-rule="nonzero" fill="#ffadd6" stroke="none" />
</svg>