<?xml version="1.0" encoding="utf-8"?>
<svg version="1.1" xmlns:xlink="http://www.w3.org/1999/xlink" width="21px" height="20px" preserveAspectRatio="xMinYMid meet" viewBox="1142 440  21 18" xmlns="http://www.w3.org/2000/svg">
  <path d="M 1151 449  L 1200 449  A 5 5 0 0 1 1205 454 L 1205 928  A 5 5 0 0 0 1210 933 L 1422 933  " stroke-width="2" stroke="#ffadd6" fill="none" />
  <path d="M 1152.5 445.5  A 3.5 3.5 0 0 0 1149 449 A 3.5 3.5 0 0 0 1152.5 452.5 A 3.5 3.5 0 0 0 1156 449 A 3.5 3.5 0 0 0 1152.5 445.5 Z M 1416.89289321881 928.707106781187  L 1421.18578643763 933  L 1416.89289321881 937.292893218813  L 1418.30710678119 938.707106781187  L 1423.30710678119 933.707106781187  L 1424.01421356237 933  L 1423.30710678119 932.292893218813  L 1418.30710678119 927.292893218813  L 1416.89289321881 928.707106781187  Z " fill-rule="nonzero" fill="#ffadd6" stroke="none" />
</svg>