<?xml version="1.0" encoding="utf-8"?>
<svg version="1.1" xmlns:xlink="http://www.w3.org/1999/xlink" width="1131px" height="10px" preserveAspectRatio="xMinYMid meet" viewBox="255 139  1131 8" xmlns="http://www.w3.org/2000/svg">
  <path d="M 257 143  L 1376 143  A 5 5 0 0 1 1381 148 L 1381 756  A 5 5 0 0 0 1386 761 L 1420 761  " stroke-width="2" stroke="#ffadd6" fill="none" />
  <path d="M 258.5 139.5  A 3.5 3.5 0 0 0 255 143 A 3.5 3.5 0 0 0 258.5 146.5 A 3.5 3.5 0 0 0 262 143 A 3.5 3.5 0 0 0 258.5 139.5 Z M 1414.89289321881 756.707106781187  L 1419.18578643763 761  L 1414.89289321881 765.292893218813  L 1416.30710678119 766.707106781187  L 1421.30710678119 761.707106781187  L 1422.01421356237 761  L 1421.30710678119 760.292893218813  L 1416.30710678119 755.292893218813  L 1414.89289321881 756.707106781187  Z " fill-rule="nonzero" fill="#ffadd6" stroke="none" />
</svg>