<?xml version="1.0" encoding="utf-8"?>
<svg version="1.1" xmlns:xlink="http://www.w3.org/1999/xlink" width="1046px" height="10px" preserveAspectRatio="xMinYMid meet" viewBox="352 86  1046 8" xmlns="http://www.w3.org/2000/svg">
  <path d="M 354 90  L 1388 90  A 5 5 0 0 1 1393 95 L 1393 140  A 5 5 0 0 0 1398 145 L 1420 145  " stroke-width="2" stroke="#ffadd6" fill="none" />
  <path d="M 355.5 86.5  A 3.5 3.5 0 0 0 352 90 A 3.5 3.5 0 0 0 355.5 93.5 A 3.5 3.5 0 0 0 359 90 A 3.5 3.5 0 0 0 355.5 86.5 Z M 1414.89289321881 140.707106781187  L 1419.18578643763 145  L 1414.89289321881 149.292893218813  L 1416.30710678119 150.707106781187  L 1421.30710678119 145.707106781187  L 1422.01421356237 145  L 1421.30710678119 144.292893218813  L 1416.30710678119 139.292893218813  L 1414.89289321881 140.707106781187  Z " fill-rule="nonzero" fill="#ffadd6" stroke="none" />
</svg>