<?xml version="1.0" encoding="utf-8"?>
<svg version="1.1" xmlns:xlink="http://www.w3.org/1999/xlink" width="10px" height="20px" preserveAspectRatio="xMidYMin meet" viewBox="285 29  8 20" xmlns="http://www.w3.org/2000/svg">
  <path d="M 281 34  L 284 34  A 5 5 0 0 1 289 39 A 5 5 0 0 0 294 44 L 1405 44  A 5 5 0 0 0 1410 39 L 1410 37  A 5 5 0 0 1 1415 32 L 1420 32  " stroke-width="2" stroke="#ffadd6" fill="none" />
  <path d="M 282.5 30.5  A 3.5 3.5 0 0 0 279 34 A 3.5 3.5 0 0 0 282.5 37.5 A 3.5 3.5 0 0 0 286 34 A 3.5 3.5 0 0 0 282.5 30.5 Z M 1414.89289321881 27.7071067811865  L 1419.18578643763 32  L 1414.89289321881 36.2928932188135  L 1416.30710678119 37.7071067811865  L 1421.30710678119 32.7071067811865  L 1422.01421356237 32  L 1421.30710678119 31.2928932188135  L 1416.30710678119 26.2928932188135  L 1414.89289321881 27.7071067811865  Z " fill-rule="nonzero" fill="#ffadd6" stroke="none" />
</svg>