<?xml version="1.0" encoding="utf-8"?>
<svg version="1.1" xmlns:xlink="http://www.w3.org/1999/xlink" width="21px" height="20px" preserveAspectRatio="xMinYMid meet" viewBox="419 70  21 18" xmlns="http://www.w3.org/2000/svg">
  <path d="M 428 79  L 1170 79  A 5 5 0 0 1 1175 84 L 1175 182  A 5 5 0 0 0 1180 187 L 1447 187  " stroke-width="2" stroke="#ffadd6" fill="none" />
  <path d="M 429.5 75.5  A 3.5 3.5 0 0 0 426 79 A 3.5 3.5 0 0 0 429.5 82.5 A 3.5 3.5 0 0 0 433 79 A 3.5 3.5 0 0 0 429.5 75.5 Z M 1441.89289321881 182.707106781187  L 1446.18578643763 187  L 1441.89289321881 191.292893218813  L 1443.30710678119 192.707106781187  L 1448.30710678119 187.707106781187  L 1449.01421356237 187  L 1448.30710678119 186.292893218813  L 1443.30710678119 181.292893218813  L 1441.89289321881 182.707106781187  Z " fill-rule="nonzero" fill="#ffadd6" stroke="none" />
</svg>