<?xml version="1.0" encoding="utf-8"?>
<svg version="1.1" xmlns:xlink="http://www.w3.org/1999/xlink" width="1054px" height="10px" preserveAspectRatio="xMinYMid meet" viewBox="206 24  1054 8" xmlns="http://www.w3.org/2000/svg">
  <path d="M 208 28  L 1250 28  A 5 5 0 0 1 1255 33 L 1255 67  A 5 5 0 0 0 1260 72 L 1449 72  " stroke-width="2" stroke="#ffadd6" fill="none" />
  <path d="M 209.5 24.5  A 3.5 3.5 0 0 0 206 28 A 3.5 3.5 0 0 0 209.5 31.5 A 3.5 3.5 0 0 0 213 28 A 3.5 3.5 0 0 0 209.5 24.5 Z M 1443.89289321881 67.7071067811866  L 1448.18578643763 72  L 1443.89289321881 76.2928932188134  L 1445.30710678119 77.7071067811866  L 1450.30710678119 72.7071067811866  L 1451.01421356237 72  L 1450.30710678119 71.2928932188134  L 1445.30710678119 66.2928932188134  L 1443.89289321881 67.7071067811866  Z " fill-rule="nonzero" fill="#ffadd6" stroke="none" />
</svg>