<?xml version="1.0" encoding="utf-8"?>
<svg version="1.1" xmlns:xlink="http://www.w3.org/1999/xlink" width="10px" height="82px" preserveAspectRatio="xMidYMin meet" viewBox="1139 410  8 82" xmlns="http://www.w3.org/2000/svg">
  <path d="M 838 415  L 1138 415  A 5 5 0 0 1 1143 420 L 1143 482  A 5 5 0 0 0 1148 487 L 1449 487  " stroke-width="2" stroke="#ffadd6" fill="none" />
  <path d="M 839.5 411.5  A 3.5 3.5 0 0 0 836 415 A 3.5 3.5 0 0 0 839.5 418.5 A 3.5 3.5 0 0 0 843 415 A 3.5 3.5 0 0 0 839.5 411.5 Z M 1443.89289321881 482.707106781187  L 1448.18578643763 487  L 1443.89289321881 491.292893218813  L 1445.30710678119 492.707106781187  L 1450.30710678119 487.707106781187  L 1451.01421356237 487  L 1450.30710678119 486.292893218813  L 1445.30710678119 481.292893218813  L 1443.89289321881 482.707106781187  Z " fill-rule="nonzero" fill="#ffadd6" stroke="none" />
</svg>