<?xml version="1.0" encoding="utf-8"?>
<svg version="1.1" xmlns:xlink="http://www.w3.org/1999/xlink" width="68px" height="77px" xmlns="http://www.w3.org/2000/svg">
  <g transform="matrix(1 0 0 1 -1280 -685 )">
    <path d="M 1281 689  A 3 3 0 0 1 1284 686 L 1344 686  A 3 3 0 0 1 1347 689 L 1347 758  A 3 3 0 0 1 1344 761 L 1284 761  A 3 3 0 0 1 1281 758 L 1281 689  Z " fill-rule="nonzero" fill="#ff3399" stroke="none" fill-opacity="0.0980392156862745" />
    <path d="M 1280.5 689  A 3.5 3.5 0 0 1 1284 685.5 L 1344 685.5  A 3.5 3.5 0 0 1 1347.5 689 L 1347.5 758  A 3.5 3.5 0 0 1 1344 761.5 L 1284 761.5  A 3.5 3.5 0 0 1 1280.5 758 L 1280.5 689  Z " stroke-width="1" stroke-dasharray="9,4" stroke="#ff3399" fill="none" stroke-dashoffset="0.5" />
  </g>
</svg>