<?xml version="1.0" encoding="utf-8"?>
<svg version="1.1" xmlns:xlink="http://www.w3.org/1999/xlink" width="68px" height="338px" xmlns="http://www.w3.org/2000/svg">
  <g transform="matrix(1 0 0 1 -1280 -154 )">
    <path d="M 1281 158  A 3 3 0 0 1 1284 155 L 1344 155  A 3 3 0 0 1 1347 158 L 1347 488  A 3 3 0 0 1 1344 491 L 1284 491  A 3 3 0 0 1 1281 488 L 1281 158  Z " fill-rule="nonzero" fill="#ff3399" stroke="none" fill-opacity="0" />
    <path d="M 1280.5 158  A 3.5 3.5 0 0 1 1284 154.5 L 1344 154.5  A 3.5 3.5 0 0 1 1347.5 158 L 1347.5 488  A 3.5 3.5 0 0 1 1344 491.5 L 1284 491.5  A 3.5 3.5 0 0 1 1280.5 488 L 1280.5 158  Z " stroke-width="1" stroke-dasharray="9,4" stroke="#ff3399" fill="none" stroke-dashoffset="0.5" />
  </g>
</svg>