<?xml version="1.0" encoding="utf-8"?>
<svg version="1.1" xmlns:xlink="http://www.w3.org/1999/xlink" width="119px" height="112px" xmlns="http://www.w3.org/2000/svg">
  <g transform="matrix(1 0 0 1 -1064 -254 )">
    <path d="M 1065 258  A 3 3 0 0 1 1068 255 L 1179 255  A 3 3 0 0 1 1182 258 L 1182 362  A 3 3 0 0 1 1179 365 L 1068 365  A 3 3 0 0 1 1065 362 L 1065 258  Z " fill-rule="nonzero" fill="#ff3399" stroke="none" fill-opacity="0.0980392156862745" />
    <path d="M 1064.5 258  A 3.5 3.5 0 0 1 1068 254.5 L 1179 254.5  A 3.5 3.5 0 0 1 1182.5 258 L 1182.5 362  A 3.5 3.5 0 0 1 1179 365.5 L 1068 365.5  A 3.5 3.5 0 0 1 1064.5 362 L 1064.5 258  Z " stroke-width="1" stroke-dasharray="9,4" stroke="#ff3399" fill="none" stroke-dashoffset="0.5" />
  </g>
</svg>