<?xml version="1.0" encoding="utf-8"?>
<svg version="1.1" xmlns:xlink="http://www.w3.org/1999/xlink" width="10px" height="42px" preserveAspectRatio="xMidYMin meet" viewBox="840 29  8 42" xmlns="http://www.w3.org/2000/svg">
  <path d="M 269 34  L 839 34  A 5 5 0 0 1 844 39 L 844 61  A 5 5 0 0 0 849 66 L 1419 66  " stroke-width="2" stroke="#ffadd6" fill="none" />
  <path d="M 270.5 30.5  A 3.5 3.5 0 0 0 267 34 A 3.5 3.5 0 0 0 270.5 37.5 A 3.5 3.5 0 0 0 274 34 A 3.5 3.5 0 0 0 270.5 30.5 Z M 1413.89289321881 61.7071067811865  L 1418.18578643763 66  L 1413.89289321881 70.2928932188134  L 1415.30710678119 71.7071067811866  L 1420.30710678119 66.7071067811866  L 1421.01421356237 66  L 1420.30710678119 65.2928932188134  L 1415.30710678119 60.2928932188135  L 1413.89289321881 61.7071067811865  Z " fill-rule="nonzero" fill="#ffadd6" stroke="none" />
</svg>