<?xml version="1.0" encoding="utf-8"?>
<svg version="1.1" xmlns:xlink="http://www.w3.org/1999/xlink" width="638px" height="10px" preserveAspectRatio="xMinYMid meet" viewBox="695 364  638 8" xmlns="http://www.w3.org/2000/svg">
  <path d="M 697 368  L 1323 368  A 5 5 0 0 1 1328 373 L 1328 695  A 5 5 0 0 0 1333 700 L 1425 700  " stroke-width="2" stroke="#ffadd6" fill="none" />
  <path d="M 698.5 364.5  A 3.5 3.5 0 0 0 695 368 A 3.5 3.5 0 0 0 698.5 371.5 A 3.5 3.5 0 0 0 702 368 A 3.5 3.5 0 0 0 698.5 364.5 Z M 1419.89289321881 695.707106781187  L 1424.18578643763 700  L 1419.89289321881 704.292893218813  L 1421.30710678119 705.707106781187  L 1426.30710678119 700.707106781187  L 1427.01421356237 700  L 1426.30710678119 699.292893218813  L 1421.30710678119 694.292893218813  L 1419.89289321881 695.707106781187  Z " fill-rule="nonzero" fill="#ffadd6" stroke="none" />
</svg>