<?xml version="1.0" encoding="utf-8"?>
<svg version="1.1" xmlns:xlink="http://www.w3.org/1999/xlink" width="20px" height="20px" preserveAspectRatio="xMinYMid meet" viewBox="1411 161  20 18" xmlns="http://www.w3.org/2000/svg">
  <path d="M 355 100  L 1392 100  A 5 5 0 0 1 1397 105 L 1397 165  A 5 5 0 0 0 1402 170 L 1421 170  " stroke-width="2" stroke="#ffadd6" fill="none" />
  <path d="M 356.5 96.5  A 3.5 3.5 0 0 0 353 100 A 3.5 3.5 0 0 0 356.5 103.5 A 3.5 3.5 0 0 0 360 100 A 3.5 3.5 0 0 0 356.5 96.5 Z M 1415.89289321881 165.707106781187  L 1420.18578643763 170  L 1415.89289321881 174.292893218813  L 1417.30710678119 175.707106781187  L 1422.30710678119 170.707106781187  L 1423.01421356237 170  L 1422.30710678119 169.292893218813  L 1417.30710678119 164.292893218813  L 1415.89289321881 165.707106781187  Z " fill-rule="nonzero" fill="#ffadd6" stroke="none" />
</svg>