<?xml version="1.0" encoding="utf-8"?>
<svg version="1.1" xmlns:xlink="http://www.w3.org/1999/xlink" width="10px" height="421px" preserveAspectRatio="xMidYMin meet" viewBox="1353 160  8 421" xmlns="http://www.w3.org/2000/svg">
  <path d="M 243 157  L 243 160  A 5 5 0 0 0 248 165 L 1352 165  A 5 5 0 0 1 1357 170 L 1357 571  A 5 5 0 0 0 1362 576 L 1425 576  " stroke-width="2" stroke="#ffadd6" fill="none" />
  <path d="M 243 155  A 3.5 3.5 0 0 0 239.5 158.5 A 3.5 3.5 0 0 0 243 162 A 3.5 3.5 0 0 0 246.5 158.5 A 3.5 3.5 0 0 0 243 155 Z M 1419.89289321881 571.707106781187  L 1424.18578643763 576  L 1419.89289321881 580.292893218813  L 1421.30710678119 581.707106781187  L 1426.30710678119 576.707106781187  L 1427.01421356237 576  L 1426.30710678119 575.292893218813  L 1421.30710678119 570.292893218813  L 1419.89289321881 571.707106781187  Z " fill-rule="nonzero" fill="#ffadd6" stroke="none" />
</svg>