<?xml version="1.0" encoding="utf-8"?>
<svg version="1.1" xmlns:xlink="http://www.w3.org/1999/xlink" width="20px" height="20px" preserveAspectRatio="xMinYMid meet" viewBox="1492 2342  20 18" xmlns="http://www.w3.org/2000/svg">
  <path d="M 1258 2270  L 1258 2346  A 5 5 0 0 0 1263 2351 L 1502 2351  " stroke-width="2" stroke="#ffadd6" fill="none" />
  <path d="M 1258 2268  A 3.5 3.5 0 0 0 1254.5 2271.5 A 3.5 3.5 0 0 0 1258 2275 A 3.5 3.5 0 0 0 1261.5 2271.5 A 3.5 3.5 0 0 0 1258 2268 Z M 1496.89289321881 2346.70710678119  L 1501.18578643763 2351  L 1496.89289321881 2355.29289321881  L 1498.30710678119 2356.70710678119  L 1503.30710678119 2351.70710678119  L 1504.01421356237 2351  L 1503.30710678119 2350.29289321881  L 1498.30710678119 2345.29289321881  L 1496.89289321881 2346.70710678119  Z " fill-rule="nonzero" fill="#ffadd6" stroke="none" />
</svg>