<?xml version="1.0" encoding="utf-8"?>
<svg version="1.1" xmlns:xlink="http://www.w3.org/1999/xlink" width="20px" height="20px" preserveAspectRatio="xMinYMid meet" viewBox="1492 2662  20 18" xmlns="http://www.w3.org/2000/svg">
  <path d="M 1343 2659  L 1343 2666  A 5 5 0 0 0 1348 2671 L 1502 2671  " stroke-width="2" stroke="#ffadd6" fill="none" />
  <path d="M 1343 2657  A 3.5 3.5 0 0 0 1339.5 2660.5 A 3.5 3.5 0 0 0 1343 2664 A 3.5 3.5 0 0 0 1346.5 2660.5 A 3.5 3.5 0 0 0 1343 2657 Z M 1496.89289321881 2666.70710678119  L 1501.18578643763 2671  L 1496.89289321881 2675.29289321881  L 1498.30710678119 2676.70710678119  L 1503.30710678119 2671.70710678119  L 1504.01421356237 2671  L 1503.30710678119 2670.29289321881  L 1498.30710678119 2665.29289321881  L 1496.89289321881 2666.70710678119  Z " fill-rule="nonzero" fill="#ffadd6" stroke="none" />
</svg>