<?xml version="1.0" encoding="utf-8"?>
<svg version="1.1" xmlns:xlink="http://www.w3.org/1999/xlink" width="21px" height="20px" preserveAspectRatio="xMinYMid meet" viewBox="745 717  21 18" xmlns="http://www.w3.org/2000/svg">
  <path d="M 754 726  L 1435 726  A 5 5 0 0 1 1440 731 L 1440 1004  A 5 5 0 0 0 1445 1009 L 1487 1009  " stroke-width="2" stroke="#ffadd6" fill="none" />
  <path d="M 755.5 722.5  A 3.5 3.5 0 0 0 752 726 A 3.5 3.5 0 0 0 755.5 729.5 A 3.5 3.5 0 0 0 759 726 A 3.5 3.5 0 0 0 755.5 722.5 Z M 1481.89289321881 1004.70710678119  L 1486.18578643763 1009  L 1481.89289321881 1013.29289321881  L 1483.30710678119 1014.70710678119  L 1488.30710678119 1009.70710678119  L 1489.01421356237 1009  L 1488.30710678119 1008.29289321881  L 1483.30710678119 1003.29289321881  L 1481.89289321881 1004.70710678119  Z " fill-rule="nonzero" fill="#ffadd6" stroke="none" />
</svg>