<?xml version="1.0" encoding="utf-8"?>
<svg version="1.1" xmlns:xlink="http://www.w3.org/1999/xlink" width="1231px" height="10px" preserveAspectRatio="xMinYMid meet" viewBox="244 24  1231 8" xmlns="http://www.w3.org/2000/svg">
  <path d="M 246 28  L 1465 28  A 5 5 0 0 1 1470 33 L 1470 67  A 5 5 0 0 0 1475 72 L 1487 72  " stroke-width="2" stroke="#ffadd6" fill="none" />
  <path d="M 247.5 24.5  A 3.5 3.5 0 0 0 244 28 A 3.5 3.5 0 0 0 247.5 31.5 A 3.5 3.5 0 0 0 251 28 A 3.5 3.5 0 0 0 247.5 24.5 Z M 1481.89289321881 67.7071067811866  L 1486.18578643763 72  L 1481.89289321881 76.2928932188134  L 1483.30710678119 77.7071067811866  L 1488.30710678119 72.7071067811866  L 1489.01421356237 72  L 1488.30710678119 71.2928932188134  L 1483.30710678119 66.2928932188134  L 1481.89289321881 67.7071067811866  Z " fill-rule="nonzero" fill="#ffadd6" stroke="none" />
</svg>