<?xml version="1.0" encoding="utf-8"?>
<svg version="1.1" xmlns:xlink="http://www.w3.org/1999/xlink" width="20px" height="20px" preserveAspectRatio="xMinYMid meet" viewBox="1489 1535  20 18" xmlns="http://www.w3.org/2000/svg">
  <path d="M 766 1261  L 1447 1261  A 5 5 0 0 1 1452 1266 L 1452 1539  A 5 5 0 0 0 1457 1544 L 1499 1544  " stroke-width="2" stroke="#ffadd6" fill="none" />
  <path d="M 767.5 1257.5  A 3.5 3.5 0 0 0 764 1261 A 3.5 3.5 0 0 0 767.5 1264.5 A 3.5 3.5 0 0 0 771 1261 A 3.5 3.5 0 0 0 767.5 1257.5 Z M 1493.89289321881 1539.70710678119  L 1498.18578643763 1544  L 1493.89289321881 1548.29289321881  L 1495.30710678119 1549.70710678119  L 1500.30710678119 1544.70710678119  L 1501.01421356237 1544  L 1500.30710678119 1543.29289321881  L 1495.30710678119 1538.29289321881  L 1493.89289321881 1539.70710678119  Z " fill-rule="nonzero" fill="#ffadd6" stroke="none" />
</svg>