<?xml version="1.0" encoding="utf-8"?>
<svg version="1.1" xmlns:xlink="http://www.w3.org/1999/xlink" width="10px" height="6px" preserveAspectRatio="xMinYMid meet" viewBox="306 31  10 4" xmlns="http://www.w3.org/2000/svg">
  <path d="M 311.959697694132 31.3414709848079  A 1 1 0 0 0 312.5 31.5 L 1407 31.5  A 5 5 0 0 1 1412.5 36.5 L 1412.5 44  A 5 5 0 0 0 1417.5 49.5 L 1422 49.5  " stroke-width="1" stroke="#ff3399" fill="none" />
  <path d="M 313.429203673205 28.5  A 3 3 0 0 0 310.429203673205 31.5 A 3 3 0 0 0 313.429203673205 34.5 A 3 3 0 0 0 316.429203673205 31.5 A 3 3 0 0 0 313.429203673205 28.5 Z " fill-rule="nonzero" fill="#ff3399" stroke="none" />
</svg>