<?xml version="1.0" encoding="utf-8"?>
<svg version="1.1" xmlns:xlink="http://www.w3.org/1999/xlink" width="21px" height="20px" preserveAspectRatio="xMinYMid meet" viewBox="248 134  21 18" xmlns="http://www.w3.org/2000/svg">
  <path d="M 257 143  L 1376 143  A 5 5 0 0 1 1381 148 L 1381 221  A 5 5 0 0 0 1386 226 L 1420 226  " stroke-width="2" stroke="#ffadd6" fill="none" />
  <path d="M 258.5 139.5  A 3.5 3.5 0 0 0 255 143 A 3.5 3.5 0 0 0 258.5 146.5 A 3.5 3.5 0 0 0 262 143 A 3.5 3.5 0 0 0 258.5 139.5 Z M 1414.89289321881 221.707106781187  L 1419.18578643763 226  L 1414.89289321881 230.292893218813  L 1416.30710678119 231.707106781187  L 1421.30710678119 226.707106781187  L 1422.01421356237 226  L 1421.30710678119 225.292893218813  L 1416.30710678119 220.292893218813  L 1414.89289321881 221.707106781187  Z " fill-rule="nonzero" fill="#ffadd6" stroke="none" />
</svg>