<?xml version="1.0" encoding="utf-8"?>
<svg version="1.1" xmlns:xlink="http://www.w3.org/1999/xlink" width="21px" height="20px" preserveAspectRatio="xMinYMid meet" viewBox="459 189  21 18" xmlns="http://www.w3.org/2000/svg">
  <path d="M 468 198  L 1325 198  A 5 5 0 0 1 1330 203 L 1330 334  A 5 5 0 0 0 1335 339 L 1422 339  " stroke-width="2" stroke="#ffadd6" fill="none" />
  <path d="M 469.5 194.5  A 3.5 3.5 0 0 0 466 198 A 3.5 3.5 0 0 0 469.5 201.5 A 3.5 3.5 0 0 0 473 198 A 3.5 3.5 0 0 0 469.5 194.5 Z M 1416.89289321881 334.707106781187  L 1421.18578643763 339  L 1416.89289321881 343.292893218813  L 1418.30710678119 344.707106781187  L 1423.30710678119 339.707106781187  L 1424.01421356237 339  L 1423.30710678119 338.292893218813  L 1418.30710678119 333.292893218813  L 1416.89289321881 334.707106781187  Z " fill-rule="nonzero" fill="#ffadd6" stroke="none" />
</svg>