<?xml version="1.0" encoding="utf-8"?>
<svg version="1.1" xmlns:xlink="http://www.w3.org/1999/xlink" width="10px" height="92px" preserveAspectRatio="xMidYMin meet" viewBox="1369.34745762712 977  8 92" xmlns="http://www.w3.org/2000/svg">
  <path d="M 249 982  L 1368.34745762712 982  A 5 5 0 0 1 1373.34745762712 987 L 1373.34745762712 1059  A 5 5 0 0 0 1378.34745762712 1064 L 1412 1064  " stroke-width="2" stroke="#ffadd6" fill="none" />
  <path d="M 250.5 978.5  A 3.5 3.5 0 0 0 247 982 A 3.5 3.5 0 0 0 250.5 985.5 A 3.5 3.5 0 0 0 254 982 A 3.5 3.5 0 0 0 250.5 978.5 Z M 1406.89289321881 1059.70710678119  L 1411.18578643763 1064  L 1406.89289321881 1068.29289321881  L 1408.30710678119 1069.70710678119  L 1413.30710678119 1064.70710678119  L 1414.01421356237 1064  L 1413.30710678119 1063.29289321881  L 1408.30710678119 1058.29289321881  L 1406.89289321881 1059.70710678119  Z " fill-rule="nonzero" fill="#ffadd6" stroke="none" />
</svg>