<?xml version="1.0" encoding="utf-8"?>
<svg version="1.1" xmlns:xlink="http://www.w3.org/1999/xlink" width="869px" height="10px" preserveAspectRatio="xMinYMid meet" viewBox="458.347457627119 1033  869 8" xmlns="http://www.w3.org/2000/svg">
  <path d="M 460 1037  L 1317.34745762712 1037  A 5 5 0 0 1 1322.34745762712 1042 L 1322.34745762712 1172  A 5 5 0 0 0 1327.34745762712 1177 L 1414 1177  " stroke-width="2" stroke="#ffadd6" fill="none" />
  <path d="M 461.5 1033.5  A 3.5 3.5 0 0 0 458 1037 A 3.5 3.5 0 0 0 461.5 1040.5 A 3.5 3.5 0 0 0 465 1037 A 3.5 3.5 0 0 0 461.5 1033.5 Z M 1408.89289321881 1172.70710678119  L 1413.18578643763 1177  L 1408.89289321881 1181.29289321881  L 1410.30710678119 1182.70710678119  L 1415.30710678119 1177.70710678119  L 1416.01421356237 1177  L 1415.30710678119 1176.29289321881  L 1410.30710678119 1171.29289321881  L 1408.89289321881 1172.70710678119  Z " fill-rule="nonzero" fill="#ffadd6" stroke="none" />
</svg>