<?xml version="1.0" encoding="utf-8"?>
<svg version="1.1" xmlns:xlink="http://www.w3.org/1999/xlink" width="10px" height="721px" preserveAspectRatio="xMidYMin meet" viewBox="1354 234  8 721" xmlns="http://www.w3.org/2000/svg">
  <path d="M 846 188  L 849 188  A 5 5 0 0 1 854 193 L 854 234  A 5 5 0 0 0 859 239 L 1353 239  A 5 5 0 0 1 1358 244 L 1358 945  A 5 5 0 0 0 1363 950 L 1457 950  " stroke-width="2" stroke="#ffadd6" fill="none" />
  <path d="M 847.5 184.5  A 3.5 3.5 0 0 0 844 188 A 3.5 3.5 0 0 0 847.5 191.5 A 3.5 3.5 0 0 0 851 188 A 3.5 3.5 0 0 0 847.5 184.5 Z M 1451.89289321881 945.707106781187  L 1456.18578643763 950  L 1451.89289321881 954.292893218813  L 1453.30710678119 955.707106781187  L 1458.30710678119 950.707106781187  L 1459.01421356237 950  L 1458.30710678119 949.292893218813  L 1453.30710678119 944.292893218813  L 1451.89289321881 945.707106781187  Z " fill-rule="nonzero" fill="#ffadd6" stroke="none" />
</svg>