<?xml version="1.0" encoding="utf-8"?>
<svg version="1.1" xmlns:xlink="http://www.w3.org/1999/xlink" width="10px" height="39px" preserveAspectRatio="xMidYMin meet" viewBox="255 134  8 39" xmlns="http://www.w3.org/2000/svg">
  <path d="M 251 139  L 254 139  A 5 5 0 0 1 259 144 L 259 163  A 5 5 0 0 0 264 168 L 1412 168  A 5 5 0 0 1 1417 173 L 1417 800  A 5 5 0 0 0 1422 805 L 1457 805  " stroke-width="2" stroke="#ffadd6" fill="none" />
  <path d="M 252.5 135.5  A 3.5 3.5 0 0 0 249 139 A 3.5 3.5 0 0 0 252.5 142.5 A 3.5 3.5 0 0 0 256 139 A 3.5 3.5 0 0 0 252.5 135.5 Z M 1451.89289321881 800.707106781187  L 1456.18578643763 805  L 1451.89289321881 809.292893218813  L 1453.30710678119 810.707106781187  L 1458.30710678119 805.707106781187  L 1459.01421356237 805  L 1458.30710678119 804.292893218813  L 1453.30710678119 799.292893218813  L 1451.89289321881 800.707106781187  Z " fill-rule="nonzero" fill="#ffadd6" stroke="none" />
</svg>