<?xml version="1.0" encoding="utf-8"?>
<svg version="1.1" xmlns:xlink="http://www.w3.org/1999/xlink" width="10px" height="11px" preserveAspectRatio="xMidYMin meet" viewBox="868 20  8 11" xmlns="http://www.w3.org/2000/svg">
  <path d="M 277 25  L 871.5 25  A 0.5 0.5 0 0 1 872 25.5 A 0.5 0.5 0 0 0 872.5 26 L 1466 26  " stroke-width="2" stroke="#ffadd6" fill="none" />
  <path d="M 278.5 21.5  A 3.5 3.5 0 0 0 275 25 A 3.5 3.5 0 0 0 278.5 28.5 A 3.5 3.5 0 0 0 282 25 A 3.5 3.5 0 0 0 278.5 21.5 Z M 1460.89289321881 21.7071067811865  L 1465.18578643763 26  L 1460.89289321881 30.2928932188135  L 1462.30710678119 31.7071067811865  L 1467.30710678119 26.7071067811865  L 1468.01421356237 26  L 1467.30710678119 25.2928932188135  L 1462.30710678119 20.2928932188135  L 1460.89289321881 21.7071067811865  Z " fill-rule="nonzero" fill="#ffadd6" stroke="none" />
</svg>