<?xml version="1.0" encoding="utf-8"?>
<svg version="1.1" xmlns:xlink="http://www.w3.org/1999/xlink" width="20px" height="20px" preserveAspectRatio="xMinYMid meet" viewBox="1447 1138  20 18" xmlns="http://www.w3.org/2000/svg">
  <path d="M 890 505  L 890 1142  A 5 5 0 0 0 895 1147 L 1457 1147  " stroke-width="2" stroke="#ffadd6" fill="none" />
  <path d="M 890 503  A 3.5 3.5 0 0 0 886.5 506.5 A 3.5 3.5 0 0 0 890 510 A 3.5 3.5 0 0 0 893.5 506.5 A 3.5 3.5 0 0 0 890 503 Z M 1451.89289321881 1142.70710678119  L 1456.18578643763 1147  L 1451.89289321881 1151.29289321881  L 1453.30710678119 1152.70710678119  L 1458.30710678119 1147.70710678119  L 1459.01421356237 1147  L 1458.30710678119 1146.29289321881  L 1453.30710678119 1141.29289321881  L 1451.89289321881 1142.70710678119  Z " fill-rule="nonzero" fill="#ffadd6" stroke="none" />
</svg>