<?xml version="1.0" encoding="utf-8"?>
<svg version="1.1" xmlns:xlink="http://www.w3.org/1999/xlink" width="10px" height="15px" preserveAspectRatio="xMidYMin meet" viewBox="1529 1101  8 15" xmlns="http://www.w3.org/2000/svg">
  <path d="M 786 990.5  L 1411 990.5  A 5 5 0 0 1 1416.5 995.5 L 1416.5 1101  A 5 5 0 0 0 1421.5 1106.5 L 1528 1106.5  A 5 5 0 0 1 1533.5 1111.5 L 1533.5 1116  " stroke-width="1" stroke="#ff3399" fill="none" />
  <path d="M 788 987.5  A 3 3 0 0 0 785 990.5 A 3 3 0 0 0 788 993.5 A 3 3 0 0 0 791 990.5 A 3 3 0 0 0 788 987.5 Z " fill-rule="nonzero" fill="#ff3399" stroke="none" />
</svg>