<?xml version="1.0" encoding="utf-8"?>
<svg version="1.1" xmlns:xlink="http://www.w3.org/1999/xlink" width="1132px" height="10px" preserveAspectRatio="xMinYMid meet" viewBox="206 1040  1132 8" xmlns="http://www.w3.org/2000/svg">
  <path d="M 207 1044.5  L 1328 1044.5  A 5 5 0 0 1 1333.5 1049.5 L 1333.5 1236  A 5 5 0 0 0 1338.5 1241.5 L 1508 1241.5  A 5 5 0 0 1 1513.5 1246.5 L 1513.5 1251  " stroke-width="1" stroke="#ff3399" fill="none" />
  <path d="M 209 1041.5  A 3 3 0 0 0 206 1044.5 A 3 3 0 0 0 209 1047.5 A 3 3 0 0 0 212 1044.5 A 3 3 0 0 0 209 1041.5 Z " fill-rule="nonzero" fill="#ff3399" stroke="none" />
</svg>