<?xml version="1.0" encoding="utf-8"?>
<svg version="1.1" xmlns:xlink="http://www.w3.org/1999/xlink" width="10px" height="76px" preserveAspectRatio="xMidYMin meet" viewBox="1422 688  8 76" xmlns="http://www.w3.org/2000/svg">
  <path d="M 803.5 636  L 803.5 688  A 5 5 0 0 0 808.5 693.5 L 1421 693.5  A 5 5 0 0 1 1426.5 698.5 L 1426.5 754  A 5 5 0 0 0 1431.5 759.5 L 1472 759.5  " stroke-width="1" stroke="#ff3399" fill="none" />
  <path d="M 803.5 635  A 3 3 0 0 0 800.5 638 A 3 3 0 0 0 803.5 641 A 3 3 0 0 0 806.5 638 A 3 3 0 0 0 803.5 635 Z " fill-rule="nonzero" fill="#ff3399" stroke="none" />
</svg>