<?xml version="1.0" encoding="utf-8"?>
<svg version="1.1" xmlns:xlink="http://www.w3.org/1999/xlink" width="10px" height="54px" preserveAspectRatio="xMidYMin meet" viewBox="846 1787  8 54" xmlns="http://www.w3.org/2000/svg">
  <path d="M 230 1792  L 845 1792  A 5 5 0 0 1 850 1797 L 850 1831  A 5 5 0 0 0 855 1836 L 1471 1836  " stroke-width="2" stroke="#ffadd6" fill="none" />
  <path d="M 231.5 1788.5  A 3.5 3.5 0 0 0 228 1792 A 3.5 3.5 0 0 0 231.5 1795.5 A 3.5 3.5 0 0 0 235 1792 A 3.5 3.5 0 0 0 231.5 1788.5 Z M 1465.89289321881 1831.70710678119  L 1470.18578643763 1836  L 1465.89289321881 1840.29289321881  L 1467.30710678119 1841.70710678119  L 1472.30710678119 1836.70710678119  L 1473.01421356237 1836  L 1472.30710678119 1835.29289321881  L 1467.30710678119 1830.29289321881  L 1465.89289321881 1831.70710678119  Z " fill-rule="nonzero" fill="#ffadd6" stroke="none" />
</svg>