<?xml version="1.0" encoding="utf-8"?>
<svg version="1.1" xmlns:xlink="http://www.w3.org/1999/xlink" width="10px" height="12px" preserveAspectRatio="xMidYMin meet" viewBox="254 1921  8 12" xmlns="http://www.w3.org/2000/svg">
  <path d="M 258.5 1922  L 258.5 1923  A 5 5 0 0 0 263.5 1928.5 L 1403 1928.5  A 5 5 0 0 1 1408.5 1933.5 L 1408.5 1966  A 5 5 0 0 0 1413.5 1971.5 L 1475 1971.5  " stroke-width="1" stroke="#ff3399" fill="none" />
  <path d="M 258.599667110794 1921.49334665398  A 3 3 0 0 0 255.599667110794 1924.49334665398 A 3 3 0 0 0 258.599667110794 1927.49334665398 A 3 3 0 0 0 261.599667110794 1924.49334665398 A 3 3 0 0 0 258.599667110794 1921.49334665398 Z " fill-rule="nonzero" fill="#ff3399" stroke="none" />
</svg>