<?xml version="1.0" encoding="utf-8"?>
<svg version="1.1" xmlns:xlink="http://www.w3.org/1999/xlink" width="10px" height="83px" preserveAspectRatio="xMidYMin meet" viewBox="1401 2028  8 83" xmlns="http://www.w3.org/2000/svg">
  <path d="M 226.5 1969  L 226.5 2028  A 5 5 0 0 0 231.5 2033.5 L 1400 2033.5  A 5 5 0 0 1 1405.5 2038.5 L 1405.5 2101  A 5 5 0 0 0 1410.5 2106.5 L 1475 2106.5  " stroke-width="1" stroke="#ff3399" fill="none" />
  <path d="M 226.5 1968  A 3 3 0 0 0 223.5 1971 A 3 3 0 0 0 226.5 1974 A 3 3 0 0 0 229.5 1971 A 3 3 0 0 0 226.5 1968 Z " fill-rule="nonzero" fill="#ff3399" stroke="none" />
</svg>