<?xml version="1.0" encoding="utf-8"?>
<svg version="1.1" xmlns:xlink="http://www.w3.org/1999/xlink" width="10px" height="15px" preserveAspectRatio="xMidYMin meet" viewBox="1555 268  8 15" xmlns="http://www.w3.org/2000/svg">
  <path d="M 1106 37.5  L 1110 37.5  A 5 5 0 0 1 1115.5 42.5 L 1115.5 113  A 5 5 0 0 0 1120.5 118.5 L 1443 118.5  A 5 5 0 0 1 1448.5 123.5 L 1448.5 268  A 5 5 0 0 0 1453.5 273.5 L 1554 273.5  A 5 5 0 0 1 1559.5 278.5 L 1559.5 283  " stroke-width="1" stroke="#ff3399" fill="none" />
  <path d="M 1108 34.5  A 3 3 0 0 0 1105 37.5 A 3 3 0 0 0 1108 40.5 A 3 3 0 0 0 1111 37.5 A 3 3 0 0 0 1108 34.5 Z " fill-rule="nonzero" fill="#ff3399" stroke="none" />
</svg>