<?xml version="1.0" encoding="utf-8"?>
<svg version="1.1" xmlns:xlink="http://www.w3.org/1999/xlink" width="20px" height="20px" preserveAspectRatio="xMinYMid meet" viewBox="1458 602  20 18" xmlns="http://www.w3.org/2000/svg">
  <path d="M 830 578  L 1438 578  A 5 5 0 0 1 1443 583 L 1443 606  A 5 5 0 0 0 1448 611 L 1468 611  " stroke-width="2" stroke="#ffadd6" fill="none" />
  <path d="M 831.5 574.5  A 3.5 3.5 0 0 0 828 578 A 3.5 3.5 0 0 0 831.5 581.5 A 3.5 3.5 0 0 0 835 578 A 3.5 3.5 0 0 0 831.5 574.5 Z M 1462.89289321881 606.707106781187  L 1467.18578643763 611  L 1462.89289321881 615.292893218813  L 1464.30710678119 616.707106781187  L 1469.30710678119 611.707106781187  L 1470.01421356237 611  L 1469.30710678119 610.292893218813  L 1464.30710678119 605.292893218813  L 1462.89289321881 606.707106781187  Z " fill-rule="nonzero" fill="#ffadd6" stroke="none" />
</svg>