<?xml version="1.0" encoding="utf-8"?>
<svg version="1.1" xmlns:xlink="http://www.w3.org/1999/xlink" width="10px" height="140px" preserveAspectRatio="xMidYMin meet" viewBox="1422 175  8 140" xmlns="http://www.w3.org/2000/svg">
  <path d="M 813 180  L 1421 180  A 5 5 0 0 1 1426 185 L 1426 305  A 5 5 0 0 0 1431 310 L 1453 310  " stroke-width="2" stroke="#ffadd6" fill="none" />
  <path d="M 814.5 176.5  A 3.5 3.5 0 0 0 811 180 A 3.5 3.5 0 0 0 814.5 183.5 A 3.5 3.5 0 0 0 818 180 A 3.5 3.5 0 0 0 814.5 176.5 Z M 1447.89289321881 305.707106781187  L 1452.18578643763 310  L 1447.89289321881 314.292893218813  L 1449.30710678119 315.707106781187  L 1454.30710678119 310.707106781187  L 1455.01421356237 310  L 1454.30710678119 309.292893218813  L 1449.30710678119 304.292893218813  L 1447.89289321881 305.707106781187  Z " fill-rule="nonzero" fill="#ffadd6" stroke="none" />
</svg>