<?xml version="1.0" encoding="utf-8"?>
<svg version="1.1" xmlns:xlink="http://www.w3.org/1999/xlink" width="10px" height="98px" preserveAspectRatio="xMidYMin meet" viewBox="1342 458  8 98" xmlns="http://www.w3.org/2000/svg">
  <path d="M 1257 463  L 1341 463  A 5 5 0 0 1 1346 468 L 1346 546  A 5 5 0 0 0 1351 551 L 1435 551  " stroke-width="2" stroke="#ffadd6" fill="none" />
  <path d="M 1258.5 459.5  A 3.5 3.5 0 0 0 1255 463 A 3.5 3.5 0 0 0 1258.5 466.5 A 3.5 3.5 0 0 0 1262 463 A 3.5 3.5 0 0 0 1258.5 459.5 Z M 1429.89289321881 546.707106781187  L 1434.18578643763 551  L 1429.89289321881 555.292893218813  L 1431.30710678119 556.707106781187  L 1436.30710678119 551.707106781187  L 1437.01421356237 551  L 1436.30710678119 550.292893218813  L 1431.30710678119 545.292893218813  L 1429.89289321881 546.707106781187  Z " fill-rule="nonzero" fill="#ffadd6" stroke="none" />
</svg>