<?xml version="1.0" encoding="utf-8"?>
<svg version="1.1" xmlns:xlink="http://www.w3.org/1999/xlink" width="10px" height="69px" preserveAspectRatio="xMidYMin meet" viewBox="1416 23  8 69" xmlns="http://www.w3.org/2000/svg">
  <path d="M 275 28  L 1415 28  A 5 5 0 0 1 1420 33 L 1420 82  A 5 5 0 0 0 1425 87 L 1431 87  " stroke-width="2" stroke="#ffadd6" fill="none" />
  <path d="M 276.5 24.5  A 3.5 3.5 0 0 0 273 28 A 3.5 3.5 0 0 0 276.5 31.5 A 3.5 3.5 0 0 0 280 28 A 3.5 3.5 0 0 0 276.5 24.5 Z M 1425.89289321881 82.7071067811866  L 1430.18578643763 87  L 1425.89289321881 91.2928932188134  L 1427.30710678119 92.7071067811866  L 1432.30710678119 87.7071067811866  L 1433.01421356237 87  L 1432.30710678119 86.2928932188134  L 1427.30710678119 81.2928932188134  L 1425.89289321881 82.7071067811866  Z " fill-rule="nonzero" fill="#ffadd6" stroke="none" />
</svg>