<?xml version="1.0" encoding="utf-8"?>
<svg version="1.1" xmlns:xlink="http://www.w3.org/1999/xlink" width="36px" height="10px" preserveAspectRatio="xMinYMid meet" viewBox="1397 190  36 8" xmlns="http://www.w3.org/2000/svg">
  <path d="M 251 85  L 1397 85  A 5 5 0 0 1 1402 90 L 1402 189  A 5 5 0 0 0 1407 194 L 1431 194  " stroke-width="2" stroke="#ffadd6" fill="none" />
  <path d="M 252.5 81.5  A 3.5 3.5 0 0 0 249 85 A 3.5 3.5 0 0 0 252.5 88.5 A 3.5 3.5 0 0 0 256 85 A 3.5 3.5 0 0 0 252.5 81.5 Z M 1425.89289321881 189.707106781187  L 1430.18578643763 194  L 1425.89289321881 198.292893218813  L 1427.30710678119 199.707106781187  L 1432.30710678119 194.707106781187  L 1433.01421356237 194  L 1432.30710678119 193.292893218813  L 1427.30710678119 188.292893218813  L 1425.89289321881 189.707106781187  Z " fill-rule="nonzero" fill="#ffadd6" stroke="none" />
</svg>