<?xml version="1.0" encoding="utf-8"?>
<svg version="1.1" xmlns:xlink="http://www.w3.org/1999/xlink" width="21px" height="20px" preserveAspectRatio="xMinYMid meet" viewBox="987 271  21 18" xmlns="http://www.w3.org/2000/svg">
  <path d="M 996 280  L 1210 280  A 5 5 0 0 1 1215 285 L 1215 361  A 5 5 0 0 0 1220 366 L 1431 366  " stroke-width="2" stroke="#ffadd6" fill="none" />
  <path d="M 997.5 276.5  A 3.5 3.5 0 0 0 994 280 A 3.5 3.5 0 0 0 997.5 283.5 A 3.5 3.5 0 0 0 1001 280 A 3.5 3.5 0 0 0 997.5 276.5 Z M 1425.89289321881 361.707106781187  L 1430.18578643763 366  L 1425.89289321881 370.292893218813  L 1427.30710678119 371.707106781187  L 1432.30710678119 366.707106781187  L 1433.01421356237 366  L 1432.30710678119 365.292893218813  L 1427.30710678119 360.292893218813  L 1425.89289321881 361.707106781187  Z " fill-rule="nonzero" fill="#ffadd6" stroke="none" />
</svg>